<?xml version="1.0" encoding="iso-8859-1"?>
<!-- Uploaded to: SVG Repo, www.svgrepo.com, Generator: SVG Repo Mixer Tools -->
<svg height="800px" width="800px" version="1.1" id="Layer_1" xmlns="http://www.w3.org/2000/svg" xmlns:xlink="http://www.w3.org/1999/xlink" 
	 viewBox="0 0 512 512" xml:space="preserve">
<path style="fill:#B5E06C;" d="M337.815,120.455v-0.438c12.174-17.849,29.264-36.947,52.145-50.15
	c27.128-15.661,57.357-20.14,81.113-20.642c21.62-0.463,35.209,23.074,24,41.566c-12.303,20.333-31.297,44.269-58.438,59.93
	c-23.704,13.692-49.764,18.84-71.821,20.256c-9.832-4.234-20.667-6.576-32.056-6.576c-2.741,0-5.456,0.142-8.133,0.412
	C332.964,152.061,337.815,136.824,337.815,120.455z"/>
<path style="fill:#DF4D60;" d="M337.815,120.017v0.438c0,16.369-4.852,31.606-13.191,44.359c-1.03,1.596-2.123,3.153-3.269,4.659
	c-13.281,17.502-33.498,29.457-56.572,31.748c-2.677,0.27-5.392,0.412-8.133,0.412c-3.191,0-6.344-0.18-9.433-0.553
	c-22.598-2.612-42.377-14.503-55.401-31.773c-1.068-1.416-2.085-2.857-3.05-4.35c-8.146-12.393-12.985-27.14-13.268-43.008v-0.013
	c-0.013-0.502-0.013-0.978-0.013-1.48c0-44.822,36.342-81.164,81.164-81.164C301.345,39.291,337.584,75.401,337.815,120.017z"/>
<path style="fill:#B5E06C;" d="M288.283,313.475c8.172,18.402,14.683,40.576,14.683,64.447c0,31.323-11.235,59.75-22.688,80.572
	c-10.411,18.956-37.59,18.956-48.001,0c-11.453-20.822-22.688-49.249-22.688-80.572c0-24.052,6.615-46.379,14.876-64.872
	c14.542-9.755,25.751-24.078,31.58-40.91C261.966,289.23,273.432,303.733,288.283,313.475z"/>
<g>
	<path style="fill:#DF4D60;" d="M191.818,169.305c13.023,17.27,32.803,29.161,55.401,31.773c3.642,5.534,6.627,11.556,8.828,17.926
		c2.883,8.326,4.453,17.257,4.453,26.561c0,6.55-0.772,12.92-2.252,19.02c-0.605,2.574-1.338,5.096-2.201,7.554
		c-5.83,16.833-17.038,31.156-31.58,40.91c-12.907,8.648-28.44,13.692-45.144,13.692c-44.822,0-81.164-36.342-81.164-81.177
		c0-33.433,20.23-62.157,49.108-74.575c9.832-4.247,20.68-6.589,32.056-6.589c3.191,0,6.344,0.18,9.446,0.553
		C189.733,166.448,190.75,167.89,191.818,169.305z"/>
	<path style="fill:#DF4D60;" d="M364.814,170.978c28.891,12.431,49.121,41.155,49.121,74.588c0,44.835-36.342,81.177-81.177,81.177
		c-16.421,0-31.696-4.877-44.475-13.268c-14.851-9.742-26.317-24.245-32.237-41.335c0.862-2.458,1.596-4.98,2.201-7.554
		c1.48-6.1,2.252-12.47,2.252-19.02c0-9.304-1.57-18.235-4.453-26.561c-2.201-6.37-5.186-12.393-8.828-17.926
		c3.089,0.373,6.241,0.553,9.433,0.553c2.741,0,5.456-0.142,8.133-0.412c23.074-2.291,43.291-14.246,56.572-31.748
		c1.145-1.506,2.239-3.063,3.269-4.659c2.677-0.27,5.392-0.412,8.133-0.412C344.147,164.402,354.982,166.744,364.814,170.978z"/>
</g>
<path style="fill:#B5E06C;" d="M175.5,121.948c0.283,15.867,5.122,30.615,13.268,43.008c-3.101-0.373-6.254-0.553-9.446-0.553
	c-11.376,0-22.225,2.342-32.056,6.589c-22.07-1.416-48.168-6.563-71.898-20.268c-27.128-15.661-46.122-39.598-58.438-59.93
	c-11.209-18.493,2.381-42.03,24-41.566c23.756,0.502,53.998,4.98,81.125,20.642c23.704,13.68,41.193,33.678,53.444,52.067V121.948z"
	/>
<path d="M179.322,339.612c-51.85,0-94.033-42.188-94.033-94.046c0-37.622,22.331-71.537,56.892-86.398
	c6.531-2.809,14.098,0.21,16.906,6.738s-0.21,14.098-6.738,16.906c-25.102,10.794-41.322,35.425-41.322,62.754
	c0,37.666,30.637,68.308,68.295,68.308c13.602,0,26.736-3.983,37.981-11.515c5.906-3.958,13.898-2.376,17.854,3.529
	s2.376,13.898-3.529,17.853C216.131,334.125,198.044,339.612,179.322,339.612z"/>
<path d="M256.277,485.58C256.277,485.58,256.278,485.58,256.277,485.58c-14.907,0-28.095-7.809-35.28-20.889
	c-15.88-28.874-24.277-58.879-24.277-86.768c0-22.77,5.382-46.363,15.996-70.121c0.986-2.207,2.574-4.091,4.581-5.438
	c12.317-8.262,21.76-20.491,26.59-34.435c2.325-6.718,9.653-10.275,16.372-7.949c6.716,2.327,10.275,9.656,7.948,16.372
	c-6.226,17.975-18.009,33.873-33.386,45.15c-8.204,19.326-12.362,38.291-12.362,56.421c0,29.771,11.471,56.874,21.095,74.371
	c3.742,6.814,10.145,7.549,12.725,7.549c2.58,0,8.982-0.734,12.722-7.542c9.626-17.503,21.099-44.606,21.099-74.377
	c0-19.012-4.567-38.939-13.575-59.224c-2.885-6.496,0.042-14.1,6.539-16.984c6.492-2.883,14.099,0.042,16.984,6.539
	c10.479,23.596,15.791,47.037,15.791,69.671c0,27.889-8.396,57.895-24.281,86.775C284.373,477.771,271.183,485.58,256.277,485.58z"
	/>
<path d="M364.801,183.847c-6.73,0.001-12.393-5.231-12.83-12.044c-0.456-7.093,4.925-13.212,12.018-13.667
	c25.443-1.634,47.719-7.877,66.209-18.557c25.796-14.885,43.529-38.369,53.863-55.449c4.031-6.651,1.466-12.563,0.176-14.795
	c-1.289-2.233-5.118-7.378-12.891-7.243c-19.975,0.421-49.19,4.046-74.953,18.92c-17.944,10.354-34.076,25.918-47.948,46.256
	c-4.004,5.872-12.011,7.384-17.883,3.381c-5.871-4.005-7.385-12.012-3.379-17.883c16.068-23.56,35.025-41.744,56.344-54.044
	c24.478-14.131,53.841-21.656,87.273-22.362c14.889-0.311,28.272,7.196,35.727,20.105s7.286,28.234-0.449,40.998
	c-17.3,28.591-38.501,50.263-63.01,64.406c-21.945,12.676-47.997,20.063-77.428,21.953
	C365.359,183.838,365.078,183.847,364.801,183.847z"/>
<path d="M147.264,183.86c-0.274,0-0.549-0.009-0.825-0.027c-29.466-1.892-55.545-9.282-77.509-21.966
	c-24.486-14.136-45.685-35.806-63.009-64.409C-1.812,84.699-1.98,69.373,5.474,56.464s20.805-20.389,35.73-20.105
	c33.436,0.707,62.804,8.23,87.286,22.364c21.948,12.666,41.368,31.534,57.719,56.077c3.94,5.915,2.34,13.905-3.575,17.844
	c-5.916,3.942-13.904,2.341-17.845-3.575c-14.135-21.217-30.677-37.387-49.167-48.056c-25.766-14.875-54.987-18.5-74.964-18.921
	c-7.732-0.16-11.605,5.01-12.895,7.243c-1.289,2.233-3.854,8.145,0.171,14.786c10.35,17.089,28.097,40.578,53.867,55.457
	c17.796,10.277,39.102,16.449,63.368,18.363c10.863-4.253,22.335-6.407,34.154-6.407c3.731,0,7.427,0.217,10.984,0.645
	c7.056,0.849,12.089,7.259,11.238,14.315c-0.849,7.056-7.267,12.084-14.314,11.238c-2.54-0.306-5.202-0.461-7.908-0.461
	c-9.383,0-18.451,1.862-26.954,5.535C150.753,183.502,149.017,183.86,147.264,183.86z"/>
<path d="M332.758,339.612c-18.393,0-36.216-5.319-51.539-15.38c-17.313-11.358-30.573-28.363-37.333-47.881
	c-0.951-2.745-0.945-5.729,0.017-8.47c0.704-2.008,1.315-4.106,1.817-6.241c1.274-5.256,1.91-10.634,1.91-16.073
	c0-7.653-1.26-15.174-3.745-22.353c-1.83-5.296-4.324-10.361-7.418-15.059c-3.908-5.936-2.262-13.916,3.674-17.826
	c5.938-3.904,13.918-2.262,17.825,3.674c4.27,6.488,7.716,13.485,10.242,20.8c3.422,9.885,5.158,20.239,5.158,30.763
	c0,7.482-0.88,14.902-2.615,22.055c-0.323,1.374-0.687,2.762-1.085,4.144c5.231,12.561,14.233,23.446,25.673,30.951
	c11.12,7.302,24.057,11.16,37.416,11.16c12.418,0,24.572-3.361,35.149-9.721c6.092-3.664,13.997-1.694,17.66,4.396
	c3.662,6.09,1.694,13.997-4.397,17.661C366.589,334.978,349.848,339.612,332.758,339.612z"/>
<path d="M405.992,293.483c-1.867,0-3.763-0.407-5.558-1.269c-6.407-3.074-9.11-10.761-6.036-17.17
	c0.326-0.678,0.641-1.364,0.943-2.055c2.856-6.508,10.448-9.466,16.956-6.612c6.508,2.857,9.468,10.448,6.612,16.957
	c-0.419,0.955-0.854,1.903-1.305,2.844C415.39,290.793,410.787,293.483,405.992,293.483z"/>
<path d="M413.897,256.21c-6.947,0-12.669-5.536-12.859-12.521c-0.713-26.497-16.929-50.397-41.312-60.888
	c-10.572-4.552-22.053-6.368-33.81-5.181c-7.065,0.732-13.382-4.44-14.097-11.51c-0.714-7.071,4.44-13.382,11.511-14.097
	c3.137-0.317,6.308-0.477,9.425-0.477c12.897,0,25.395,2.566,37.146,7.626c33.561,14.44,55.882,47.347,56.865,83.836
	c0.19,7.105-5.414,13.019-12.519,13.211C414.133,256.209,414.014,256.21,413.897,256.21z"/>
<path d="M256.65,214.499c-3.737,0-7.429-0.217-10.977-0.646c-25.304-2.925-48.702-16.342-64.131-36.801
	c-1.302-1.726-2.475-3.4-3.583-5.113c-9.692-14.741-15.01-31.979-15.328-49.764c0-0.004,0-0.008,0-0.01
	c-0.013-0.578-0.014-1.131-0.014-1.713c0-51.85,42.183-94.032,94.033-94.032c51.582,0,93.765,41.956,94.033,93.528
	c0,0.023,0,0.044,0,0.067v0.438c0,18.332-5.287,36.106-15.288,51.402c-1.156,1.79-2.445,3.626-3.792,5.401
	c-15.781,20.795-39.673,34.199-65.546,36.768C262.948,214.34,259.776,214.499,256.65,214.499z M188.366,121.779
	c0.242,12.889,4.099,25.374,11.153,36.108c0.818,1.265,1.641,2.439,2.567,3.665c11.213,14.87,28.2,24.616,46.607,26.744
	c4.76,0.575,9.805,0.624,14.797,0.122c18.794-1.866,36.14-11.606,47.614-26.724c0.957-1.261,1.869-2.558,2.709-3.861
	c7.297-11.16,11.132-24.064,11.132-37.379v-0.4c-0.21-37.441-30.84-67.895-68.295-67.895c-37.658,0-68.295,30.637-68.295,68.294
	c0,0.394-0.001,0.766,0.009,1.157C188.365,121.667,188.366,121.724,188.366,121.779z"/>
</svg>